<svg width="44" height="46" viewBox="0 0 44 46" fill="none" xmlns="http://www.w3.org/2000/svg">
<g clip-path="url(#clip0_338_58)">
<path d="M22 32.0612C24.4877 32.0612 26.8735 31.0515 28.6325 29.2543C30.3916 27.4571 31.3798 25.0195 31.3798 22.4779C31.3798 19.9362 30.3916 17.4986 28.6325 15.7014C26.8735 13.9042 24.4877 12.8945 22 12.8945C19.5123 12.8945 17.1265 13.9042 15.3674 15.7014C13.6083 17.4986 12.6201 19.9362 12.6201 22.4779C12.6201 25.0195 13.6083 27.4571 15.3674 29.2543C17.1265 31.0515 19.5123 32.0612 22 32.0612Z" stroke="black" stroke-width="2" stroke-linecap="round" stroke-linejoin="round"/>
<path d="M0.895508 32.0609V12.8942C0.895508 9.71713 2.1308 6.67019 4.32962 4.42366C6.52845 2.17713 9.5107 0.915039 12.6203 0.915039H31.38C34.4896 0.915039 37.4719 2.17713 39.6707 4.42366C41.8695 6.67019 43.1048 9.71713 43.1048 12.8942V32.0609C43.1048 35.2379 41.8695 38.2849 39.6707 40.5314C37.4719 42.778 34.4896 44.04 31.38 44.04H12.6203C9.5107 44.04 6.52845 42.778 4.32962 40.5314C2.1308 38.2849 0.895508 35.2379 0.895508 32.0609Z" stroke="black" stroke-width="2"/>
<path d="M34.8975 9.32421L34.9209 9.29785" stroke="black" stroke-width="2" stroke-linecap="round" stroke-linejoin="round"/>
</g>
<defs>
<clipPath id="clip0_338_58">
<rect width="44" height="46" fill="white"/>
</clipPath>
</defs>
</svg>
