<svg width="43" height="45" viewBox="0 0 43 45" fill="none" xmlns="http://www.w3.org/2000/svg">
<mask id="path-1-inside-1_369_123" fill="white">
<path d="M21.5039 0C27.191 0 32.6455 2.25895 36.667 6.28027C40.6884 10.3017 42.9472 15.7562 42.9472 21.4434C42.9472 27.1305 40.6884 32.585 36.667 36.6064C32.6455 40.6278 27.191 42.8867 21.5039 42.8867C17.5319 42.8867 13.674 41.7836 10.3379 39.749C8.97507 43.453 7.02372 45.5581 2.76071 44.416C-3.90242 42.6306 3.85392 40.528 1.832 29.9756C0.675082 27.3078 0.060525 24.4074 0.0605138 21.4434C0.0605578 15.7563 2.31945 10.3017 6.34079 6.28027C10.3622 2.2589 15.8168 7.52269e-05 21.5039 0Z"/>
</mask>
<path d="M21.5039 0V-2H21.5038L21.5039 0ZM36.667 6.28027L38.0812 4.86606L38.0812 4.86604L36.667 6.28027ZM42.9472 21.4434L44.9472 21.4434V21.4433L42.9472 21.4434ZM36.667 36.6064L38.0812 38.0207L38.0812 38.0207L36.667 36.6064ZM21.5039 42.8867L21.5038 44.8867H21.5039V42.8867ZM10.3379 39.749L11.3792 38.0415L9.30128 36.7742L8.46087 39.0584L10.3379 39.749ZM2.76071 44.416L2.24307 46.3479L2.24315 46.3479L2.76071 44.416ZM1.832 29.9756L3.79627 29.5992L3.75472 29.3824L3.66688 29.1799L1.832 29.9756ZM0.0605139 21.4434L-1.93949 21.4433V21.4434L0.0605139 21.4434ZM6.34079 6.28027L4.92657 4.86606L4.92656 4.86607L6.34079 6.28027ZM21.5039 0V2C26.6606 2 31.6065 4.0483 35.2528 7.6945L36.667 6.28027L38.0812 4.86604C33.6846 0.469592 27.7213 -2 21.5039 -2V0ZM36.667 6.28027L35.2527 7.69449C38.899 11.3407 40.9472 16.2866 40.9472 21.4434L42.9472 21.4434L44.9472 21.4433C44.9472 15.2259 42.4777 9.26262 38.0812 4.86606L36.667 6.28027ZM42.9472 21.4434L40.9472 21.4434C40.9472 26.6002 38.899 31.546 35.2527 35.1922L36.667 36.6064L38.0812 38.0207C42.4778 33.6241 44.9472 27.6608 44.9472 21.4434L42.9472 21.4434ZM36.667 36.6064L35.2528 35.1922C31.6065 38.8385 26.6607 40.8867 21.5039 40.8867V42.8867V44.8867C27.7213 44.8867 33.6846 42.4172 38.0812 38.0207L36.667 36.6064ZM21.5039 42.8867L21.5039 40.8867C17.9028 40.8867 14.4047 39.8867 11.3792 38.0415L10.3379 39.749L9.29649 41.4565C12.9432 43.6806 17.1609 44.8867 21.5038 44.8867L21.5039 42.8867ZM10.3379 39.749L8.46087 39.0584C7.81875 40.8037 7.16489 41.7816 6.47825 42.2696C5.90973 42.6736 5.0184 42.9503 3.27827 42.4841L2.76071 44.416L2.24315 46.3479C4.76603 47.0238 6.98188 46.819 8.79549 45.53C10.491 44.325 11.4942 42.3983 12.2148 40.4396L10.3379 39.749ZM2.76071 44.416L3.27835 42.4842C2.51237 42.2789 2.10024 42.1052 1.89363 41.9854C1.70783 41.8777 1.85234 41.9101 1.94982 42.1576C2.0394 42.385 1.97125 42.5035 2.0182 42.3049C2.06938 42.0884 2.18308 41.7833 2.40463 41.2464C3.29064 39.0997 4.92224 35.4757 3.79627 29.5992L1.832 29.9756L-0.132269 30.352C0.763677 35.0279 -0.471935 37.7314 -1.29284 39.7204C-1.49801 40.2176 -1.73851 40.8094 -1.87451 41.3846C-2.01472 41.9778 -2.10299 42.7827 -1.77197 43.6233C-1.43306 44.4839 -0.785545 45.0558 -0.112253 45.4461C0.540218 45.8243 1.34327 46.1068 2.24307 46.3479L2.76071 44.416ZM1.832 29.9756L3.66688 29.1799C2.61763 26.7604 2.06052 24.1305 2.06051 21.4434L0.0605139 21.4434L-1.93949 21.4434C-1.93947 24.6843 -1.26747 27.8553 -0.00288838 30.7713L1.832 29.9756ZM0.0605139 21.4434L2.06051 21.4434C2.06055 16.2866 4.10882 11.3407 7.75501 7.69448L6.34079 6.28027L4.92656 4.86607C0.530078 9.26261 -1.93944 15.226 -1.93949 21.4433L0.0605139 21.4434ZM6.34079 6.28027L7.755 7.69449C11.4012 4.04828 16.3471 2.00007 21.5039 2L21.5039 0L21.5038 -2C15.2865 -1.99992 9.32312 0.469518 4.92657 4.86606L6.34079 6.28027Z" fill="black" mask="url(#path-1-inside-1_369_123)"/>
<mask id="path-3-inside-2_369_123" fill="white">
<path d="M22.2227 10C25.1686 10.0002 27.994 11.1708 30.0771 13.2539C32.1603 15.3372 33.3311 18.1632 33.3311 21.1094C33.331 24.0554 32.1603 26.8806 30.0771 28.9639C27.994 31.047 25.1687 32.2176 22.2227 32.2178C20.4436 32.2178 18.7095 31.788 17.1553 30.9912C16.5066 33.1646 15.5321 34.5479 14.4414 34.5479C12.4884 34.5477 10.9053 30.114 10.9053 24.6455C10.9053 23.4589 10.9795 22.321 11.1162 21.2666C11.1155 21.2142 11.1133 21.1618 11.1133 21.1094C11.1133 18.1631 12.2838 15.3373 14.3672 13.2539C16.4505 11.1707 19.2765 10 22.2227 10Z"/>
</mask>
<path d="M22.2227 10L22.2228 8H22.2227V10ZM30.0771 13.2539L31.4914 11.8397L31.4913 11.8397L30.0771 13.2539ZM33.3311 21.1094L35.3311 21.1094V21.1094H33.3311ZM30.0771 28.9639L31.4914 30.3781L31.4914 30.378L30.0771 28.9639ZM22.2227 32.2178V34.2178H22.2228L22.2227 32.2178ZM17.1553 30.9912L18.0677 29.2115L15.9269 28.1139L15.2388 30.4192L17.1553 30.9912ZM14.4414 34.5479L14.4412 36.5479H14.4414V34.5479ZM10.9053 24.6455L8.90527 24.6455V24.6455H10.9053ZM11.1162 21.2666L13.0996 21.5238L13.118 21.3816L13.116 21.2383L11.1162 21.2666ZM11.1133 21.1094H9.11328V21.1094L11.1133 21.1094ZM14.3672 13.2539L12.953 11.8396L12.953 11.8397L14.3672 13.2539ZM22.2227 10L22.2225 12C24.638 12.0002 26.9548 12.96 28.663 14.6681L30.0771 13.2539L31.4913 11.8397C29.0332 9.38166 25.6992 8.00026 22.2228 8L22.2227 10ZM30.0771 13.2539L28.6629 14.6681C30.3711 16.3764 31.3311 18.6937 31.3311 21.1094H33.3311H35.3311C35.3311 17.6327 33.9496 14.2981 31.4914 11.8397L30.0771 13.2539ZM33.3311 21.1094L31.3311 21.1093C31.331 23.5248 30.3711 25.8413 28.6629 27.5497L30.0771 28.9639L31.4914 30.378C33.9494 27.9199 35.331 24.5861 35.3311 21.1094L33.3311 21.1094ZM30.0771 28.9639L28.6629 27.5497C26.9548 29.2578 24.6381 30.2176 22.2225 30.2178L22.2227 32.2178L22.2228 34.2178C25.6993 34.2175 29.0332 32.8362 31.4914 30.3781L30.0771 28.9639ZM22.2227 32.2178V30.2178C20.7664 30.2178 19.3445 29.8661 18.0677 29.2115L17.1553 30.9912L16.2428 32.771C18.0746 33.71 20.1208 34.2178 22.2227 34.2178V32.2178ZM17.1553 30.9912L15.2388 30.4192C14.9511 31.383 14.63 32.0284 14.3615 32.388C14.0691 32.7796 14.0735 32.5479 14.4414 32.5479V34.5479V36.5479C15.9001 36.5479 16.937 35.6245 17.5667 34.7811C18.2203 33.9058 18.7107 32.7728 19.0717 31.5632L17.1553 30.9912ZM14.4414 34.5479L14.4416 32.5479C14.7704 32.5479 14.8133 32.7401 14.5932 32.4794C14.381 32.228 14.0998 31.7457 13.8245 30.9747C13.2801 29.4501 12.9053 27.2126 12.9053 24.6455H10.9053H8.90527C8.90527 27.5469 9.32204 30.2604 10.0574 32.3199C10.422 33.3409 10.9028 34.3088 11.5367 35.0597C12.1628 35.8013 13.1359 36.5477 14.4412 36.5479L14.4414 34.5479ZM10.9053 24.6455L12.9053 24.6455C12.9053 23.541 12.9744 22.4892 13.0996 21.5238L11.1162 21.2666L9.13281 21.0094C8.98457 22.1528 8.90529 23.3767 8.90527 24.6455L10.9053 24.6455ZM11.1162 21.2666L13.116 21.2383C13.1154 21.1986 13.1143 21.1558 13.1139 21.1392C13.1136 21.1281 13.1135 21.121 13.1134 21.1156C13.1133 21.1105 13.1133 21.1087 13.1133 21.1093L11.1133 21.1094L9.11328 21.1094C9.11328 21.1614 9.11436 21.2079 9.11506 21.2368C9.11594 21.2726 9.11623 21.2822 9.11641 21.2949L11.1162 21.2666ZM11.1133 21.1094H13.1133C13.1133 18.6935 14.0731 16.3764 15.7814 14.6681L14.3672 13.2539L12.953 11.8397C10.4946 14.2981 9.11328 17.6326 9.11328 21.1094H11.1133ZM14.3672 13.2539L15.7814 14.6682C17.4897 12.9599 19.807 12 22.2227 12V10V8C18.746 8 15.4113 9.38147 12.953 11.8396L14.3672 13.2539Z" fill="black" mask="url(#path-3-inside-2_369_123)"/>
</svg>
