<svg width="53" height="52" viewBox="0 0 53 52" fill="none" xmlns="http://www.w3.org/2000/svg">
<path d="M46.2536 5.86951C46.1126 5.74972 45.9409 5.67011 45.7571 5.6393C45.5734 5.6085 45.3845 5.62767 45.2111 5.69473L3.78385 21.6275C3.36153 21.7886 3.00395 22.0803 2.76498 22.4585C2.52602 22.8367 2.41863 23.2811 2.459 23.7245C2.49937 24.1679 2.68531 24.5864 2.9888 24.917C3.29228 25.2475 3.69687 25.4721 4.14158 25.557L15.5358 27.7548V40.178C15.5357 40.6586 15.6819 41.1283 15.9554 41.5267C16.2289 41.9251 16.6174 42.2341 17.071 42.4139C17.3628 42.529 17.6743 42.5883 17.9888 42.5887C18.318 42.588 18.6436 42.5221 18.9463 42.3951C19.2491 42.2681 19.5227 42.0825 19.7509 41.8494L25.4746 36.0235L34.2645 43.5992C34.7101 43.9854 35.2832 44.1996 35.8774 44.2019C36.1369 44.2007 36.3946 44.1608 36.6419 44.0833C37.0466 43.9574 37.4106 43.7294 37.6975 43.422C37.9845 43.1146 38.1844 42.7386 38.2772 42.3316L46.5807 6.85388C46.6222 6.67608 46.6138 6.49051 46.5561 6.31708C46.4985 6.14366 46.3939 5.98893 46.2536 5.86951ZM4.08843 23.5802C4.07644 23.483 4.09872 23.3848 4.15154 23.3018C4.20436 23.2188 4.28454 23.1561 4.3787 23.1242L40.0802 9.39317L16.1634 26.238L4.45843 23.98C4.35922 23.9657 4.26811 23.9181 4.20065 23.8452C4.13318 23.7723 4.09352 23.6786 4.08843 23.5802ZM18.5755 40.7325C18.4624 40.8469 18.3173 40.9257 18.1585 40.9588C17.9998 40.9919 17.8346 40.9778 17.684 40.9184C17.5334 40.8589 17.4042 40.7568 17.3129 40.6249C17.2215 40.4931 17.1722 40.3375 17.1711 40.178V28.8677L24.2399 34.9548L18.5755 40.7325ZM36.6828 41.9659C36.6511 42.1024 36.5838 42.2283 36.4875 42.3313C36.3911 42.4343 36.2691 42.5108 36.1334 42.5532C35.9977 42.5956 35.8531 42.6025 35.7139 42.5731C35.5747 42.5438 35.4458 42.4792 35.3398 42.3858L17.6679 27.1561L44.5896 8.19585L36.6828 41.9659Z" fill="black"/>
</svg>
